<?xml version="1.0" encoding="utf-8"?>
<!-- Generator: Adobe Illustrator 21.0.2, SVG Export Plug-In . SVG Version: 6.00 Build 0)  -->
<svg version="1.1" id="Layer_1" xmlns="http://www.w3.org/2000/svg" xmlns:xlink="http://www.w3.org/1999/xlink" x="0px" y="0px"
     viewBox="0 0 65 65" style="enable-background:new 0 0 65 65;" xml:space="preserve">
<style type="text/css">
	.st0{fill:#1DDBD8;}
</style>
  <title>Zcash Wallet</title>
  <desc>Created with Sketch.</desc>
  <path class="st0" d="M27.9,36.9c-2.5-2.5-2.5-6.6,0-9.1c2.5-2.5,6.6-2.5,9.1,0s2.5,6.6,0,9.1l0,0C34.5,39.4,30.5,39.4,27.9,36.9
	L27.9,36.9z M13,12.9c4.3-4.3,9.9-7.1,15.9-7.9l0.5,9.3c-9.9,1.8-16.5,11.2-14.8,21.1c1.8,9.9,11.2,16.5,21.1,14.8
	c9.9-1.8,16.5-11.2,14.8-21.1c-0.7-3.7-2.4-7.1-5.1-9.7c0,0-0.1-0.1-0.1-0.1l-6.4,6.4l-1-20.4l20.4,1l-6.4,6.4c0,0,0.1,0.1,0.1,0.1
	c10.7,10.7,10.7,28.2-0.1,39s-28.2,10.8-39,0.1S2.3,23.7,13,12.9z"/>
</svg>
