<svg height="20" viewBox="0 0 20 20" width="20" xmlns="http://www.w3.org/2000/svg">
  <title>logo-Celsius (CEL)</title>
  <desc>Created with Sketch.</desc>
  <g id="logo-Celsius-(CEL)___ujz9weIU" stroke="none" stroke-width="1" fill="none" fill-rule="evenodd">
    <rect id="Rectangle___ujz9weIU" fill="#4156A6" fill-rule="nonzero" x="0" y="0" width="20" height="20" rx="10"></rect>
    <g id="Celsius-logo___ujz9weIU" fill="#FFFFFF">
      <path d="M9.91783384,15.890411 C6.67807954,15.890411 4.04221872,13.2479126 4.04221872,10 C4.04221872,6.75208743 6.67807954,4.10958903 9.91783384,4.10958903 C11.3792648,4.10958903 12.7804796,4.65116113 13.862636,5.63485067 C14.0499989,5.8048791 14.0642948,6.0954258 13.8942602,6.2830434 C13.7246589,6.47087817 13.4350586,6.4849929 13.2476956,6.31496447 C12.3340576,5.4848 11.1516134,5.02769927 9.91783384,5.02769927 C7.18298475,5.02769927 4.95802279,7.25804693 4.95802279,10 C4.95802279,12.7419531 7.18298475,14.9725179 9.91783384,14.9725179 C11.1516134,14.9725179 12.3342742,14.5152 13.2476956,13.6852527 C13.4350586,13.5152242 13.7244423,13.529339 13.8942602,13.7169566 C14.0642948,13.9047913 14.0499989,14.1951209 13.862636,14.3655836 C12.7806962,15.3488389 11.3794814,15.890411 9.91783384,15.890411" id="Fill-12___ujz9weIU"></path>
      <path d="M15.376183,7.80821917 C15.376183,8.0438287 15.1875699,8.23560953 14.9563284,8.23560953 C14.7241343,8.23560953 14.5357593,8.0438287 14.5357593,7.80821917 C14.5357593,7.57260967 14.7241343,7.38082883 14.9563284,7.38082883 C15.1875699,7.38082883 15.376183,7.57260967 15.376183,7.80821917 M14.9563284,6.84931507 C14.4364517,6.84931507 14.0130249,7.27961117 14.0130249,7.80821917 C14.0130249,8.33682717 14.4364517,8.7671233 14.9563284,8.7671233 C15.476205,8.7671233 15.8993937,8.33682717 15.8993937,7.80821917 C15.8993937,7.27961117 15.476205,6.84931507 14.9563284,6.84931507" id="Fill-13___ujz9weIU" fill-rule="nonzero"></path>
    </g>
  </g>
</svg>
